# xmcd CD database file
#
# Track frame offsets:
#	150
#	22728
#	37735
#	62175
#	90522
#	116559
#	149467
#	166305
#	199235
#	215066
#	231874
#	252658
#
# Disc length: 3626 seconds
#
# Revision: 3
# Processed by: cddbd v1.5.2PL0 Copyright (c) Steve Scherf et al.
# Submitted via: CDex 1.70beta2
#
DISCID=a70e280c
DTITLE=Van Morrison - No Guru, No Method, No Teacher
DYEAR=1986
DGENRE=Psychedelic Rock
TTITLE0=Got To Go Back
TTITLE1=Oh The Warm Feeling
TTITLE2=Foreign Window
TTITLE3=A Town Called Paradise
TTITLE4=In The Garden
TTITLE5=Tir Na Nog
TTITLE6=Here Comes The Knight
TTITLE7=Thanks For The Information
TTITLE8=One Irish Rover
TTITLE9=Ivory Tower
TTITLE10=Oh The Warm Feeling (Alternate Take)
TTITLE11=Lonely At The Top
EXTD=YEAR: 1986
EXTT0=
EXTT1=
EXTT2=
EXTT3=
EXTT4=
EXTT5=
EXTT6=
EXTT7=
EXTT8=
EXTT9=
EXTT10=
EXTT11=
PLAYORDER=
